<?xml version="1.0" ?><!DOCTYPE svg  PUBLIC '-//W3C//DTD SVG 1.1//EN'  'http://www.w3.org/Graphics/SVG/1.1/DTD/svg11.dtd'><svg enable-background="new 0 0 48 48" height="48px" id="Layer_3" version="1.1" viewBox="0 0 48 48" width="48px" xml:space="preserve" xmlns="http://www.w3.org/2000/svg" xmlns:xlink="http://www.w3.org/1999/xlink"><g><polygon fill="#241F20" points="15.917,4 18.062,4 20,4 21,4 21,0 20,0 18.062,0 12,0 12,8 15.917,8  "/><rect fill="#241F20" height="4" width="10" x="25"/><rect fill="#241F20" height="9.958" width="4.083" x="43.917" y="13"/><polygon fill="#241F20" points="41.042,0 39.979,0 39.021,0 39.021,4 39.979,4 41.042,4 43.917,4 43.917,7.453 43.917,8    43.917,9.016 48,9.016 48,8 48,7.453 48,0  "/><polygon fill="#241F20" points="43.917,28 43.917,29.167 43.917,32 40,32 40,36 48,36 48,29.167 48,28 48,27.083 43.917,27.083     "/><path d="M0,48h36V12H0V48z M4,16h28v28H4V16z" fill="#241F20"/></g></svg>